<svg xmlns="http://www.w3.org/2000/svg" viewBox="0 8.859999656677246 54.880001068115234 37.0099983215332" data-asc="0.9052734375" width="54.880001068115234" height="37.0099983215332"><defs/><g><g fill="#000000"><g transform="translate(0, 0)"><path d="M0 45.26L0 9.47L4.74 9.47L4.74 41.04L22.36 41.04L22.36 45.26L0 45.26ZM26.39 33.76L30.86 33.37Q31.18 36.06 32.34 37.78Q33.50 39.50 35.94 40.56Q38.38 41.63 41.43 41.63Q44.14 41.63 46.22 40.82Q48.29 40.01 49.30 38.61Q50.32 37.21 50.32 35.55Q50.32 33.86 49.34 32.60Q48.36 31.35 46.12 30.49Q44.68 29.93 39.75 28.75Q34.81 27.56 32.84 26.51Q30.27 25.17 29.02 23.18Q27.76 21.19 27.76 18.73Q27.76 16.02 29.30 13.66Q30.83 11.30 33.79 10.08Q36.74 8.86 40.36 8.86Q44.34 8.86 47.38 10.14Q50.42 11.43 52.05 13.92Q53.69 16.41 53.81 19.56L49.27 19.90Q48.90 16.50 46.79 14.77Q44.68 13.04 40.55 13.04Q36.25 13.04 34.29 14.61Q32.32 16.19 32.32 18.41Q32.32 20.34 33.72 21.58Q35.08 22.83 40.86 24.13Q46.63 25.44 48.78 26.42Q51.90 27.86 53.39 30.07Q54.88 32.28 54.88 35.16Q54.88 38.01 53.25 40.54Q51.61 43.07 48.55 44.47Q45.48 45.87 41.65 45.87Q36.79 45.87 33.51 44.46Q30.22 43.04 28.36 40.20Q26.49 37.35 26.39 33.76Z"/></g></g></g></svg>