<?xml version="1.0" encoding="UTF-8"?>
<svg version="1.1" xmlns="http://www.w3.org/2000/svg" width="1749" height="1327">
<path d="M0 0 C0.66 0 1.32 0 2 0 C13.03323092 37.57661164 23.95968878 75.18339333 34.8125 112.8125 C35.11133842 113.84861671 35.41017685 114.88473343 35.71807098 115.95224762 C38.13110248 124.31872198 40.54400405 132.68523382 42.95666504 141.05181503 C48.75025428 161.14233975 54.55873023 181.22853102 60.375 201.3125 C60.82231931 202.85722778 61.2696358 204.40195638 61.71694946 205.94668579 C63.48748959 212.06088194 65.25814289 218.1750453 67.02903748 224.28913879 C70.1791743 235.16513711 73.32822684 246.04144891 76.4765625 256.91796875 C76.70409462 257.70401867 76.93162674 258.49006859 77.16605377 259.2999382 C78.31685372 263.27559732 79.46763615 267.25126151 80.6184082 271.22692871 C82.914793 279.1604245 85.21129941 287.09388509 87.5078125 295.02734375 C87.73489647 295.81182514 87.96198044 296.59630653 88.19594574 297.40456009 C91.38082604 308.4069846 94.56605774 319.40930733 97.75151825 330.41156387 C107.76029464 364.9810774 117.7634182 399.55221817 127.75907898 434.12552643 C135.21014217 459.89741354 142.66474065 485.66827335 150.125 511.4375 C150.35016296 512.21525787 150.57532593 512.99301575 150.80731201 513.79434204 C152.84690941 520.83946887 154.88658227 527.88457385 156.92633057 534.92965698 C160.11525944 545.94390037 163.30384734 556.95824243 166.4921875 567.97265625 C166.71925385 568.75707596 166.94632019 569.54149567 167.18026733 570.34968567 C169.01645765 576.69296629 170.8526279 583.03625272 172.688797 589.37953949 C174.29512601 594.92881032 175.90146407 600.47807854 177.5078125 606.02734375 C177.84847244 607.2041848 177.84847244 607.2041848 178.1960144 608.40480042 C181.38084377 619.40704738 184.56602393 630.40919274 187.75143242 641.41127205 C200.09517374 684.04548356 212.43583014 726.68058891 224.75714111 769.32128906 C227.29159608 778.09192257 229.82797438 786.8619944 232.3675375 795.63115025 C234.01393463 801.31648245 235.65859195 807.00231575 237.30175877 812.68858242 C238.2362336 815.92211094 239.17189172 819.15528502 240.10928345 822.38796997 C241.11694544 825.86342029 242.12139521 829.33978257 243.125 832.81640625 C243.42057297 833.83283203 243.71614594 834.84925781 244.02067566 835.89648438 C244.28455582 836.81308838 244.54843597 837.72969238 244.8203125 838.67407227 C245.04992676 839.4674147 245.27954102 840.26075714 245.51611328 841.07814026 C246 843 246 843 246 845 C245.42781738 845.05945801 244.85563477 845.11891602 244.26611328 845.18017578 C213.31845332 848.53505287 184.97335526 859.88740179 164.73095703 884.54589844 C146.16457151 908.06847548 137.30955502 937.2652411 140.6875 967.125 C142.92643782 982.24169051 147.50004216 995.69818798 155 1009 C155.54398438 1009.98484375 156.08796875 1010.9696875 156.6484375 1011.984375 C171.53970405 1037.11792732 197.21310073 1052.82535096 224.90625 1060.0546875 C252.66239023 1066.71283208 282.68351201 1060.73080827 306.8671875 1046.0859375 C311.91164469 1042.72715927 316.51155524 1039.06866215 321 1035 C321.48710449 1034.56204102 321.97420898 1034.12408203 322.47607422 1033.67285156 C342.51716537 1015.4279263 355.54513659 989.07397801 357.12280273 961.88354492 C358.27469793 930.50227857 348.48206021 901.88851034 327.046875 878.76953125 C316.96805287 868.21370112 305.11783029 860.37240571 292 854 C293.59908976 850.03887307 296.34948192 847.3749362 299.33251953 844.42456055 C300.14761238 843.60662018 300.14761238 843.60662018 300.97917175 842.77215576 C302.77553733 840.97208859 304.57900045 839.17932151 306.3828125 837.38671875 C307.63910808 836.13161626 308.89503314 834.87614279 310.15060425 833.62031555 C312.7854719 830.98701213 315.42366358 828.35710074 318.06445312 825.72973633 C321.4317384 822.37936191 324.7924834 819.02252246 328.15094185 815.66330242 C330.74676292 813.0677549 333.3451952 810.47483469 335.94448471 807.882761 C337.18329459 806.64711152 338.42151891 805.41087466 339.65912247 804.17401695 C345.44489674 798.39553921 351.2082724 792.65875237 357.43209839 787.34675598 C359.38131179 785.67247056 361.20163467 783.8969932 363 782.0625 C363.66 781.39476562 364.32 780.72703125 365 780.0390625 C365.66 779.36617187 366.32 778.69328125 367 778 C371.59002151 773.32032964 376.2512494 768.83724173 381.21875 764.55859375 C383.41700048 762.63512458 385.46655152 760.59601613 387.5 758.5 C390.88241399 755.0711721 394.38070442 751.87951482 398.03515625 748.74609375 C400.73378361 746.34790999 403.24314575 743.78388476 405.75 741.1875 C407.7070764 739.28478684 409.70585307 737.49226996 411.765625 735.703125 C415.8563252 732.14977858 419.81301273 728.47201155 423.75 724.75 C432.85319116 716.18116807 442.05644649 707.73439502 451.36328125 699.38671875 C454.47220392 696.57256801 457.54920434 693.72524318 460.625 690.875 C464.66664578 687.13109849 468.74247428 683.44361103 472.91015625 679.83984375 C475.64370599 677.43329809 478.32112354 674.96695051 481 672.5 C484.93282404 668.87907279 488.90214082 665.31041014 492.94140625 661.80859375 C495.4895665 659.5698875 497.99410593 657.28589788 500.5 655 C505.98457422 650.00311022 511.53268831 645.09686934 517.18359375 640.2890625 C524.02420434 634.4633567 530.74386559 628.54219064 537.34375 622.4453125 C541.87510677 618.27379877 546.52830509 614.25320506 551.21484375 610.2578125 C552.41421409 609.23455265 553.61342817 608.21110963 554.8125 607.1875 C555.41860107 606.67026367 556.02470215 606.15302734 556.64916992 605.62011719 C560.39051541 602.4151062 564.0610693 599.14798497 567.6875 595.8125 C571.18259889 592.60354956 574.7428384 589.53934163 578.4375 586.5625 C582.43223986 583.34056899 586.24554349 579.99344505 590 576.5 C594.61004336 572.21044887 599.37782956 568.19589328 604.28515625 564.24609375 C607.10673495 561.9116941 609.80590712 559.48009402 612.5 557 C616.9698512 552.88621091 621.59044893 549.02912703 626.31640625 545.21484375 C628.94708557 543.04367173 631.47942424 540.79758643 634 538.5 C638.29991791 534.58108748 642.75919547 530.90829131 647.28125 527.25 C649.92147729 525.06498431 652.4672972 522.80828609 655 520.5 C658.31989486 517.47717579 661.69764112 514.57487839 665.1875 511.75 C669.63852192 508.14529915 673.99198605 504.44629733 678.3125 500.6875 C679.26274048 499.86088867 679.26274048 499.86088867 680.23217773 499.01757812 C681.51831655 497.89837515 682.80436788 496.77907163 684.09033203 495.65966797 C692.02112641 488.76711617 700.00802445 481.96122354 708.1640625 475.3359375 C712.64980066 471.64107329 717.04354834 467.84039178 721.44921875 464.05078125 C728.71031003 457.80572679 736.00553429 451.6036885 743.4375 445.5625 C747.68392382 442.10725849 751.85296294 438.57302166 756 435 C761.01319488 430.68071044 766.0853732 426.44902881 771.22265625 422.27734375 C774.34396633 419.71795728 777.42440998 417.11395878 780.5 414.5 C785.27402598 410.44559591 790.08879776 406.44778356 794.9453125 402.4921875 C798.68153727 399.4439632 802.40374366 396.37896642 806.125 393.3125 C806.84913086 392.71590576 807.57326172 392.11931152 808.31933594 391.50463867 C809.80570748 390.28000061 811.29203523 389.05530939 812.77832031 387.83056641 C816.3516205 384.88632412 819.92584428 381.9432036 823.5 379 C824.91667137 377.83333904 826.33333803 376.66667237 827.75 375.5 C836.24999999 368.50000001 836.24999999 368.50000001 838.37768555 366.74780273 C839.78541921 365.58848314 841.19313424 364.42914092 842.60083008 363.26977539 C846.27901439 360.24050687 849.95758211 357.21170559 853.63671875 354.18359375 C854.39855469 353.55646484 855.16039062 352.92933594 855.9453125 352.28320312 C857.39441049 351.09034807 858.84362139 349.89763017 860.29296875 348.70507812 C860.95296875 348.16173828 861.61296875 347.61839844 862.29296875 347.05859375 C862.92122559 346.54538574 863.54948242 346.03217773 864.19677734 345.50341797 C865.38852877 344.50980772 866.56152069 343.49320717 867.71337891 342.45361328 C869.08163346 341.2309804 870.53486314 340.10468351 872 339 C872.99 339.33 873.98 339.66 875 340 C874.78211823 340.73166382 874.56423645 341.46332764 874.3397522 342.21716309 C862.93801677 380.50841083 851.56591082 418.80829479 840.25 457.125 C839.98018562 458.03861298 839.71037125 458.95222595 839.43238068 459.89352417 C836.94696391 468.30958078 834.46192668 476.72574942 831.9772644 485.14202881 C828.14784209 498.11337048 824.31679268 511.0842305 820.484375 524.0546875 C820.21671577 524.96055729 819.94905655 525.86642708 819.67328644 526.79974747 C818.32253882 531.3712051 816.97176186 535.94265406 815.62097168 540.51409912 C813.18473165 548.75905642 810.74875238 557.00409076 808.31275177 565.2491188 C806.9585117 569.83274898 805.60425502 574.41637424 804.25 579 C803.70833325 580.83333331 803.16666659 582.66666664 802.625 584.5 C747.37499701 771.50001012 747.37499701 771.50001012 746.56249714 774.25000954 C746.0208399 776.08331105 745.47918277 777.91661259 744.93752575 779.74991417 C743.58321567 784.33373461 742.22890374 788.91755451 740.87458801 793.50137329 C738.43879857 801.74555602 736.00302192 809.98974252 733.5673151 818.23394966 C732.21545887 822.809615 730.86359169 827.3852771 729.51171875 831.9609375 C729.11007791 833.32036531 729.11007791 833.32036531 728.7003231 834.70725632 C724.87442637 847.65663198 721.04790837 860.60582394 717.22102737 873.55490875 C714.75138151 881.91156543 712.28188953 890.26826758 709.8125 898.625 C709.40646042 899.99909027 709.40646042 899.99909027 708.99221802 901.40093994 C701.15268623 927.93137078 693.3220175 954.46440039 685.5 981 C674.66632674 1017.75241279 663.81130749 1054.49850261 652.95199585 1091.24334717 C649.13024069 1104.17509957 645.30904339 1117.10701668 641.48828125 1130.0390625 C641.22021479 1130.9463743 640.95214832 1131.8536861 640.67595863 1132.7884922 C637.97916323 1141.91621407 635.2824338 1151.04395542 632.5858202 1160.171731 C631.24213375 1164.7199633 629.89841765 1169.26818685 628.5546875 1173.81640625 C628.15502557 1175.16917695 628.15502557 1175.16917695 627.74728966 1176.54927635 C624.08841244 1188.93361776 620.42826609 1201.31758345 616.76715088 1213.70126343 C614.72890262 1220.59563678 612.69101548 1227.49011687 610.65320206 1234.38461876 C609.27854012 1239.03539085 607.90368942 1243.68610691 606.52832031 1248.33666992 C605.24945772 1252.66092539 603.97107409 1256.98532216 602.69307709 1261.30983353 C602.19794343 1262.98508431 601.7026705 1264.66029394 601.2072525 1266.33546066 C598.32084116 1276.09653431 595.45377327 1285.8629498 592.61230469 1295.63720703 C592.05315857 1297.55799648 591.49398533 1299.47877803 590.93478394 1301.39955139 C589.86529466 1305.07349635 588.80013855 1308.7486614 587.73733521 1312.42454529 C587.25717314 1314.07547411 586.77686514 1315.72636049 586.29638672 1317.37719727 C586.07759731 1318.13836161 585.85880791 1318.89952595 585.63338852 1319.68375587 C584.11363656 1324.88636344 584.11363656 1324.88636344 583 1326 C580.46184582 1326.09929593 577.9508846 1326.13252582 575.41219944 1326.1241985 C574.60260795 1326.12547658 573.79301646 1326.12675467 572.95889189 1326.12807148 C570.20535301 1326.13117053 567.45186988 1326.12704929 564.69833279 1326.12304783 C562.71204893 1326.12378651 560.7257652 1326.12496407 558.73948184 1326.12654433 C553.22914693 1326.12963489 547.71883026 1326.12642051 542.2084967 1326.12226619 C536.23346795 1326.1188502 530.25844116 1326.12119929 524.28341204 1326.12284368 C513.79421103 1326.1249238 503.30501499 1326.12329539 492.81581497 1326.11920547 C481.55574674 1326.11483427 470.29568121 1326.11263209 459.03561211 1326.11310768 C457.97061236 1326.11315072 457.97061236 1326.11315072 456.88409747 1326.11319463 C453.26409514 1326.11335099 449.64409281 1326.11354294 446.02409048 1326.11374746 C419.79146452 1326.11515666 393.55884097 1326.11171826 367.32621574 1326.10573006 C341.33923264 1326.09981207 315.35225057 1326.09595587 289.3652668 1326.09487724 C288.55887399 1326.09484283 287.75248118 1326.09480842 286.92165223 1326.09477296 C279.55673677 1326.09445977 272.19182132 1326.09417208 264.82690586 1326.09391499 C246.51673007 1326.09327551 228.20655429 1326.09231613 209.89637852 1326.09113979 C208.64552825 1326.09105982 208.64552825 1326.09105982 207.36940828 1326.09097823 C166.78297427 1326.0883553 126.19654094 1326.08204716 85.61010742 1326.07543945 C71.52178956 1326.07314784 57.43347169 1326.0708725 43.34515381 1326.06866455 C42.47142139 1326.0685276 41.59768897 1326.06839065 40.69747981 1326.06824955 C0.09675469 1326.06190808 -40.50397055 1326.05818073 -81.10469604 1326.05512976 C-83.7398049 1326.05493169 -86.37491376 1326.0547325 -89.01002262 1326.05453308 C-106.47270051 1326.05321332 -123.9353784 1326.05193867 -141.3980563 1326.05069422 C-176.1458752 1326.04821757 -210.89369408 1326.04547588 -245.64151295 1326.04255217 C-247.29637786 1326.04241293 -248.95124278 1326.04227388 -250.6061077 1326.04213501 C-325.12550768 1326.03588015 -399.64490717 1326.02654165 -474.16430664 1326.01586914 C-474.8622297 1326.01576921 -475.56015275 1326.01566927 -476.27922499 1326.01556631 C-511.18615002 1326.01056562 -546.09307503 1326.00538907 -581 1326 C-581.47823705 1324.73884916 -581.95511846 1323.4771842 -582.43144131 1322.21530914 C-582.6971526 1321.5127759 -582.96286389 1320.81024266 -583.23662704 1320.08642054 C-584.32571714 1317.10976291 -585.23361916 1314.0921706 -586.13110352 1311.05273438 C-586.42112322 1310.07497559 -586.42112322 1310.07497559 -586.71700191 1309.0774641 C-587.35706423 1306.91703202 -587.99298737 1304.75540498 -588.62890625 1302.59375 C-589.09069055 1301.03197406 -589.55273387 1299.47027469 -590.01501465 1297.90864563 C-591.27065931 1293.66429145 -592.52270727 1289.41888382 -593.77412796 1285.17328262 C-595.10895102 1280.64704487 -596.44711075 1276.12179372 -597.78491211 1271.59643555 C-600.04587392 1263.94680972 -602.30485484 1256.29660139 -604.5625 1248.64599609 C-607.62178522 1238.27910937 -610.68520442 1227.9134485 -613.75011444 1217.5482235 C-624.69359116 1180.53800106 -635.61804768 1143.52218219 -646.53019714 1106.50271225 C-653.44622942 1083.04009522 -660.37238632 1059.58050538 -667.3125 1036.125 C-667.5241404 1035.40971886 -667.73578079 1034.69443771 -667.95383453 1033.95748138 C-668.38272128 1032.50798242 -668.8116096 1031.05848393 -669.2404995 1029.6089859 C-670.32962202 1025.9281314 -671.4187268 1022.24727165 -672.5078125 1018.56640625 C-672.83599661 1017.45722965 -672.83599661 1017.45722965 -673.1708107 1016.32564545 C-679.01512196 996.57286388 -684.85130334 976.81768032 -690.6875 957.0625 C-691.23784327 955.19964583 -691.7881871 953.33679183 -692.33853149 951.47393799 C-694.55797073 943.96135719 -696.77737601 936.44876635 -698.99671936 928.93615723 C-702.83740017 915.93522695 -706.67835124 902.93437654 -710.51953125 889.93359375 C-710.78707403 889.02807329 -711.05461681 888.12255283 -711.33026695 887.18959236 C-712.68018577 882.62068694 -714.03010948 878.05178296 -715.3800354 873.48287964 C-717.81577983 865.23895132 -720.25148077 856.99501014 -722.68718529 848.75107002 C-724.0414551 844.1673795 -725.39572769 839.58368979 -726.75 835 C-727.29166668 833.16666667 -727.83333335 831.33333334 -728.375 829.5 C-728.7771875 828.13875 -728.7771875 828.13875 -729.1875 826.75 C-756 736 -782.8125 645.25 -873 340 C-872.34 339.67 -871.68 339.34 -871 339 C-863.50086173 344.81267539 -856.101496 350.70139645 -848.89550781 356.87451172 C-845.03037665 360.16932027 -841.07544169 363.32505863 -837.0625 366.4375 C-831.58057438 370.69401813 -826.28164658 375.1245927 -821.03271484 379.66430664 C-816.75800553 383.36023635 -812.42017466 386.9664044 -808.03515625 390.53125 C-798.45834902 398.32087956 -788.9325647 406.1709924 -779.52954102 414.16967773 C-776.23838317 416.96538136 -772.91438742 419.71500629 -769.5625 422.4375 C-764.69950576 426.39443418 -759.94299797 430.46435942 -755.19384766 434.55615234 C-750.77691282 438.35401501 -746.29046003 442.05680041 -741.76953125 445.73046875 C-735.89200589 450.54688939 -730.12388086 455.494943 -724.33398438 460.41601562 C-722.68166431 461.81980812 -721.02863116 463.2227522 -719.375 464.625 C-718.83230469 465.08519531 -718.28960938 465.54539062 -717.73046875 466.01953125 C-714.39215586 468.84301998 -711.02157818 471.62156089 -707.625 474.375 C-702.55553585 478.50130803 -697.61900187 482.76785718 -692.69018555 487.05981445 C-688.10922813 491.04691184 -683.49267274 494.98804282 -678.84863281 498.90136719 C-674.83615915 502.28481864 -670.85281439 505.70090777 -666.875 509.125 C-662.71319863 512.706311 -658.5173063 516.23158293 -654.25 519.6875 C-649.87492253 523.23745321 -645.69450808 526.95563821 -641.53125 530.75 C-638.9115519 533.07862053 -636.2248469 535.29562947 -633.5 537.5 C-629.03435293 541.1126583 -624.76715385 544.88893545 -620.5234375 548.7578125 C-617.94917642 551.04515904 -615.30710511 553.21548271 -612.625 555.375 C-608.07139288 559.05636689 -603.76417484 562.92774473 -599.48095703 566.91357422 C-596.24823796 569.90412641 -592.93312334 572.73771685 -589.5 575.5 C-584.98141824 579.1356405 -580.72016671 582.96836402 -576.47827148 586.91625977 C-573.2670095 589.88715628 -569.97372185 592.69961077 -566.5625 595.4375 C-561.78298078 599.28174639 -557.30679656 603.37089045 -552.83398438 607.56054688 C-549.50862723 610.65765465 -546.11289193 613.59614376 -542.5625 616.4375 C-536.85422221 621.01914402 -531.55703962 625.98802436 -526.22265625 630.9921875 C-523.18205669 633.8422557 -520.07651576 636.60488811 -516.921875 639.328125 C-514.58894926 641.35758073 -512.29488755 643.427647 -510 645.5 C-507.01937279 648.18983431 -504.02754767 650.86310364 -501 653.5 C-497.10070674 656.89615864 -493.263709 660.35901843 -489.42578125 663.82421875 C-487.36297212 665.67443563 -485.2828763 667.49944809 -483.1875 669.3125 C-478.96856509 672.98374356 -474.88059888 676.79243726 -470.78027344 680.59472656 C-467.26553598 683.84835758 -463.70408789 687.03393659 -460.08203125 690.16796875 C-456.8627558 693.00068955 -453.71545288 695.91158486 -450.56005859 698.81494141 C-447.41233382 701.70982102 -444.24770474 704.58376372 -441.0625 707.4375 C-435.54561186 712.39036123 -430.10501172 717.4240376 -424.66455078 722.46044922 C-423.04760777 723.95596735 -421.42855869 725.44916259 -419.80859375 726.94140625 C-412.79717316 733.40096714 -405.81566209 739.89179979 -398.8515625 746.40234375 C-396.22539469 748.85723974 -393.59480098 751.30726921 -390.9609375 753.75390625 C-390.29755371 754.37088379 -389.63416992 754.98786133 -388.95068359 755.62353516 C-387.69674389 756.78958923 -386.44193282 757.95470735 -385.18603516 759.11865234 C-382.25197485 761.84951607 -379.37497014 764.61644011 -376.5625 767.47265625 C-374.16822264 769.88859676 -371.70558537 772.15946526 -369.125 774.375 C-363.69337243 779.06357255 -358.73825098 784.21502119 -353.7109375 789.328125 C-352.96070313 790.08609375 -352.21046875 790.8440625 -351.4375 791.625 C-350.44556641 792.63433594 -350.44556641 792.63433594 -349.43359375 793.6640625 C-347.47893017 795.54028854 -345.49751219 797.30065219 -343.44140625 799.06079102 C-337.86722656 803.9065231 -332.70607638 809.16965687 -327.5 814.40234375 C-326.41306197 815.49115104 -325.32589985 816.57973466 -324.23852539 817.66810608 C-321.40216777 820.50824889 -318.56882836 823.3513836 -315.73614502 826.19519043 C-312.83505747 829.10657891 -309.93107287 832.01507467 -307.02734375 834.92382812 C-301.34875182 840.6130867 -295.67335084 846.30551499 -290 852 C-291 855 -291 855 -293.23046875 856.25390625 C-294.20628906 856.68574219 -295.18210937 857.11757813 -296.1875 857.5625 C-321.12142072 869.61586452 -339.21424026 891.33177702 -349 917 C-358.4673775 945.43989411 -357.25972146 975.76095038 -344.09326172 1002.86669922 C-339.7412789 1011.41483362 -334.27077684 1018.76729817 -328 1026 C-327.21625 1027.03125 -326.4325 1028.0625 -325.625 1029.125 C-307.4659909 1049.01343853 -280.13598567 1061.14429779 -253.43359375 1062.375 C-240.15937718 1062.73141743 -227.69368821 1061.99740905 -215 1058 C-214.319375 1057.79101074 -213.63875 1057.58202148 -212.9375 1057.36669922 C-197.8214023 1052.58923936 -184.77525849 1044.58846079 -173 1034 C-172.23300781 1033.31550781 -171.46601562 1032.63101562 -170.67578125 1031.92578125 C-149.44813627 1011.8836243 -139.05284633 983.62363542 -138.03515625 954.9140625 C-137.5103049 926.77098081 -148.55316611 899.61203832 -167.76391602 879.21264648 C-188.75151433 857.6995371 -214.598779 848.13376601 -244 845 C-241.07550532 832.86527622 -237.73801616 820.87648734 -234.2578125 808.890625 C-233.69609097 806.94805984 -233.13462517 805.00542073 -232.57339478 803.06271362 C-231.07241285 797.8696877 -229.56791603 792.67768635 -228.06272888 787.48587799 C-226.47754015 782.01577099 -224.89569218 776.54469802 -223.31347656 771.07373047 C-220.43872951 761.13522358 -217.56124743 751.19751124 -214.68238831 741.26019478 C-212.04992144 732.17317623 -209.41969596 723.08551036 -206.79029465 713.99760437 C-203.22496711 701.67501153 -199.65788295 689.35292845 -196.08934402 677.03126526 C-190.30760524 657.0675084 -184.53408123 637.10137982 -178.7617569 617.13489914 C-168.53993617 581.77786234 -158.30935728 546.42336761 -148.07366943 511.07034302 C-144.88474056 500.05609963 -141.69615073 489.04175813 -138.5078125 478.02734375 C-138.28070461 477.24277864 -138.05359673 476.45821354 -137.81960678 475.64987373 C-136.67207128 471.68560035 -135.52454145 467.72132532 -134.37701416 463.75704956 C-132.31383295 456.62954354 -130.25060155 449.50205205 -128.18737411 442.3745594 C-127.04158071 438.41637352 -125.89579051 434.45818672 -124.75 430.5 C-124.29166668 428.91666666 -123.83333335 427.33333333 -123.375 425.75 C-123.148125 424.96625 -122.92125 424.1825 -122.6875 423.375 C-98.62499499 340.24998269 -98.62499499 340.24998269 -97.93750191 337.87500668 C-97.47916215 336.29165111 -97.02082246 334.70829552 -96.56248283 333.12493992 C-95.41674823 329.16694663 -94.27101255 325.20895365 -93.12527466 321.2509613 C-91.0615946 314.12190114 -88.9979221 306.99283879 -86.93428993 299.86376476 C-85.78692779 295.90006038 -84.63955932 291.93635783 -83.4921875 287.97265625 C-83.26506954 287.1880559 -83.03795158 286.40345554 -82.80395126 285.59507942 C-79.61910507 274.59277514 -76.4339075 263.59057263 -73.24848175 252.58843613 C-71.20723927 245.53814779 -69.16608993 238.4878325 -67.125 231.4375 C-66.78725555 230.27086319 -66.78725555 230.27086319 -66.44268799 229.08065796 C-59.4620976 204.96801801 -52.48676143 180.85386199 -45.51464844 156.73876953 C-42.5085622 146.34140006 -39.50206539 135.94414929 -36.49554443 125.54690552 C-35.99670407 123.8217977 -35.49786374 122.09668987 -34.99902344 120.37158203 C-34.75218685 119.51796648 -34.50535027 118.66435093 -34.25103378 117.78486824 C-32.74110829 112.56315059 -31.23133966 107.3413876 -29.72166824 102.11959648 C-27.23264011 93.51035103 -24.74306779 84.90126328 -22.25255203 76.29244804 C-21.09555017 72.29305961 -19.93877741 68.29360537 -18.78271484 64.29394531 C-12.58274117 42.84455385 -6.31842955 21.41480389 0 0 Z " fill="#FEFEFE" transform="translate(874,1)"/>
</svg>
