<?xml version="1.0" encoding="UTF-8"?>
<svg version="1.1" xmlns="http://www.w3.org/2000/svg" width="250" height="250">
<path d="M0 0 C1.08781265 -0.00846954 2.17562531 -0.01693909 3.29640198 -0.02566528 C6.86089055 -0.04889316 10.42494369 -0.0500606 13.98950195 -0.04882812 C16.49136015 -0.05593951 18.99321674 -0.06363992 21.49507141 -0.07189941 C26.72918229 -0.08531264 31.96314242 -0.0869277 37.19726562 -0.08105469 C43.86677611 -0.07369976 50.53544429 -0.10571734 57.2048521 -0.14617157 C62.37054768 -0.17217009 67.53607032 -0.17491481 72.70182228 -0.17127991 C75.15872848 -0.17296056 77.61564358 -0.18250001 80.07248497 -0.20042419 C103.8229843 -0.35461471 121.09295343 3.29678235 138.5402832 20.41992188 C139.1796582 21.03480469 139.8190332 21.6496875 140.4777832 22.28320312 C151.44831208 33.71899997 156.00556632 49.38105876 155.96020508 64.87963867 C155.96867462 65.96745132 155.97714417 67.05526398 155.98587036 68.17604065 C156.00909824 71.74052922 156.01026568 75.30458237 156.0090332 78.86914062 C156.01614458 81.37099882 156.023845 83.87285541 156.03210449 86.37471008 C156.04551772 91.60882096 156.04713278 96.84278109 156.04125977 102.0769043 C156.03390484 108.74641478 156.06592242 115.41508297 156.10637665 122.08449078 C156.13237517 127.25018635 156.13511989 132.41570899 156.13148499 137.58146095 C156.13316564 140.03836715 156.14270508 142.49528226 156.16062927 144.95212364 C156.31481979 168.70262298 152.66342273 185.9725921 135.5402832 203.41992188 C134.92540039 204.05929688 134.31051758 204.69867188 133.67700195 205.35742188 C122.24120511 216.32795075 106.57914631 220.88520499 91.08056641 220.83984375 C89.99275375 220.84831329 88.9049411 220.85678284 87.78416443 220.86550903 C84.21967585 220.88873691 80.65562271 220.88990435 77.09106445 220.88867188 C74.58920625 220.89578326 72.08734967 220.90348367 69.585495 220.91174316 C64.35138412 220.92515639 59.11742399 220.92677145 53.88330078 220.92089844 C47.2137903 220.91354351 40.54512211 220.94556109 33.8757143 220.98601532 C28.71001873 221.01201384 23.54449609 221.01475856 18.37874413 221.01112366 C15.92183793 221.01280431 13.46492282 221.02234376 11.00808144 221.04026794 C-12.7424179 221.19445846 -30.01238702 217.5430614 -47.4597168 200.41992188 C-48.0990918 199.80503906 -48.7384668 199.19015625 -49.3972168 198.55664062 C-60.36774567 187.12084378 -64.92499991 171.45878499 -64.87963867 155.96020508 C-64.88810822 154.87239243 -64.89657776 153.78457977 -64.90530396 152.6638031 C-64.92853183 149.09931453 -64.92969927 145.53526138 -64.9284668 141.97070312 C-64.93557818 139.46884493 -64.94327859 136.96698834 -64.95153809 134.46513367 C-64.96495131 129.23102279 -64.96656637 123.99706266 -64.96069336 118.76293945 C-64.95333843 112.09342897 -64.98535601 105.42476078 -65.02581024 98.75535297 C-65.05180876 93.5896574 -65.05455348 88.42413476 -65.05091858 83.2583828 C-65.05259923 80.8014766 -65.06213868 78.34456149 -65.08006287 75.88772011 C-65.23425339 52.13722077 -61.58285632 34.86725165 -44.4597168 17.41992188 C-43.84483398 16.78054687 -43.22995117 16.14117187 -42.59643555 15.48242188 C-31.16063871 4.511893 -15.49857991 -0.04536124 0 0 Z M-41.3894043 29.94335938 C-52.11494943 42.77353978 -54.61433002 58.42809742 -54.60498047 74.59472656 C-54.60833908 75.45152008 -54.61169769 76.3083136 -54.61515808 77.19107056 C-54.62456744 79.99132788 -54.62660613 82.79152478 -54.62768555 85.59179688 C-54.63090516 87.56178816 -54.63426974 89.53177921 -54.63777161 91.50177002 C-54.64373793 95.62032627 -54.64561409 99.73886161 -54.64501953 103.85742188 C-54.64491807 109.09986249 -54.65856498 114.34216718 -54.67579174 119.58457565 C-54.68698402 123.65127156 -54.68893653 127.71793536 -54.68840981 131.78464508 C-54.68957926 133.71567503 -54.69394189 135.6467061 -54.70174217 137.57772064 C-54.78178641 159.43922488 -52.89696171 178.39646475 -37.2722168 195.10742188 C-24.30006018 207.55895682 -7.59792814 210.57519809 9.71508789 210.56518555 C11.00027817 210.57022346 11.00027817 210.57022346 12.31143188 210.57536316 C15.11168921 210.58477252 17.9118861 210.5868112 20.7121582 210.58789062 C22.68214949 210.59111024 24.65214054 210.59447482 26.62213135 210.59797668 C30.7406876 210.603943 34.85922294 210.60581917 38.9777832 210.60522461 C44.22022381 210.60512315 49.46252851 210.61877006 54.70493698 210.63599682 C58.77163289 210.6471891 62.83829669 210.64914161 66.90500641 210.64861488 C68.83603636 210.64978434 70.76706742 210.65414697 72.69808197 210.66194725 C94.55958621 210.74199148 113.51682608 208.85716679 130.2277832 193.23242188 C142.67931815 180.26026525 145.69555941 163.55813321 145.68554688 146.24511719 C145.68890549 145.38832367 145.6922641 144.53153015 145.69572449 143.64877319 C145.70513385 140.84851587 145.70717253 138.04831897 145.70825195 135.24804688 C145.71147156 133.27805559 145.71483615 131.30806454 145.71833801 129.33807373 C145.72430433 125.21951748 145.7261805 121.10098214 145.72558594 116.98242188 C145.72548448 111.73998126 145.73913139 106.49767657 145.75635815 101.2552681 C145.76755043 97.18857219 145.76950293 93.12190839 145.76897621 89.05519867 C145.77014566 87.12416872 145.7745083 85.19313765 145.78230858 83.26212311 C145.86227987 61.42054014 144.0235764 42.35209778 128.2902832 25.73242188 C115.09773214 13.11154802 99.01262279 10.26445243 81.36547852 10.2746582 C80.08028824 10.26962029 80.08028824 10.26962029 78.76913452 10.26448059 C75.96887719 10.25507123 73.1686803 10.25303255 70.3684082 10.25195312 C68.39841692 10.24873351 66.42842586 10.24536893 64.45843506 10.24186707 C60.33987881 10.23590075 56.22134347 10.23402458 52.1027832 10.23461914 C46.86034259 10.2347206 41.6180379 10.22107369 36.37562943 10.20384693 C32.30893352 10.19265465 28.24226972 10.19070214 24.17556 10.19122887 C22.24453005 10.19005941 20.31349898 10.18569678 18.38248444 10.1778965 C-4.67782081 10.09346295 -24.59870124 12.45060601 -41.3894043 29.94335938 Z " fill="#FFFFFF" transform="translate(79.459716796875,14.580078125)"/>
<path d="M0 0 C1.44898682 0.01244751 1.44898682 0.01244751 2.92724609 0.02514648 C10.26187137 0.19860463 16.49121994 1.14496306 23.125 4.4375 C24.64287109 5.18386719 24.64287109 5.18386719 26.19140625 5.9453125 C39.8454622 13.29355288 48.9445051 24.52099377 53.82421875 39.19921875 C55.34874024 44.59371866 55.62470657 49.72958274 55.5625 55.3125 C55.55420166 56.27849121 55.54590332 57.24448242 55.53735352 58.23974609 C55.36389537 65.57437137 54.41753694 71.80371994 51.125 78.4375 C50.62742187 79.44941406 50.12984375 80.46132812 49.6171875 81.50390625 C42.26894712 95.1579622 31.04150623 104.2570051 16.36328125 109.13671875 C10.96878134 110.66124024 5.83291726 110.93720657 0.25 110.875 C-1.19898682 110.86255249 -1.19898682 110.86255249 -2.67724609 110.84985352 C-10.01187137 110.67639537 -16.24121994 109.73003694 -22.875 106.4375 C-23.88691406 105.93992187 -24.89882812 105.44234375 -25.94140625 104.9296875 C-39.5954622 97.58144712 -48.6945051 86.35400623 -53.57421875 71.67578125 C-55.09874024 66.28128134 -55.37470657 61.14541726 -55.3125 55.5625 C-55.30420166 54.59650879 -55.29590332 53.63051758 -55.28735352 52.63525391 C-55.11389537 45.30062863 -54.16753694 39.07128006 -50.875 32.4375 C-50.12863281 30.91962891 -50.12863281 30.91962891 -49.3671875 29.37109375 C-42.01894712 15.7170378 -30.79150623 6.6179949 -16.11328125 1.73828125 C-10.71878134 0.21375976 -5.58291726 -0.06220657 0 0 Z M-28.875 21.4375 C-29.49117187 21.91574219 -30.10734375 22.39398438 -30.7421875 22.88671875 C-37.18296726 28.56891779 -42.1110731 38.01487469 -43.875 46.4375 C-44.76693768 61.19102653 -43.22256162 72.47444061 -33.875 84.4375 C-33.39675781 85.05367188 -32.91851562 85.66984375 -32.42578125 86.3046875 C-26.74358221 92.74546726 -17.29762531 97.6735731 -8.875 99.4375 C5.87852653 100.32943768 17.16194061 98.78506162 29.125 89.4375 C29.74117188 88.95925781 30.35734375 88.48101562 30.9921875 87.98828125 C37.43296726 82.30608221 42.3610731 72.86012531 44.125 64.4375 C45.01693768 49.68397347 43.47256162 38.40055939 34.125 26.4375 C33.64675781 25.82132813 33.16851562 25.20515625 32.67578125 24.5703125 C26.99358221 18.12953274 17.54762531 13.2014269 9.125 11.4375 C-5.62852653 10.54556232 -16.91194061 12.08993838 -28.875 21.4375 Z " fill="#FFFFFF" transform="translate(124.875,69.5625)"/>
<path d="M0 0 C3.125 1.875 3.125 1.875 5 5 C5.98876625 10.02622846 5.7769173 13.70513784 3.125 18.125 C-1.29486216 20.7769173 -4.97377154 20.98876625 -10 20 C-13.125 18.125 -13.125 18.125 -15 15 C-15.98876625 9.97377154 -15.7769173 6.29486216 -13.125 1.875 C-8.70513784 -0.7769173 -5.02622846 -0.98876625 0 0 Z " fill="#FFFFFF" transform="translate(190,55)"/>
</svg>
